<svg width="236" height="24" viewBox="0 0 236 24" fill="none" xmlns="http://www.w3.org/2000/svg">
<rect width="32" height="24" rx="2" fill="#FB2CA8"/>
<path d="M19.216 16.696V18H12.936V16.696H15.336V9.48C15.336 9.224 15.344 8.96267 15.36 8.696L13.512 10.256C13.432 10.32 13.3493 10.3627 13.264 10.384C13.184 10.4 13.1067 10.4 13.032 10.384C12.9627 10.368 12.8987 10.344 12.84 10.312C12.7867 10.2747 12.744 10.2347 12.712 10.192L12.176 9.44L15.648 6.456H17.048V16.696H19.216Z" fill="white"/>
<rect x="68.5" y="0.5" width="31" height="23" rx="1.5" stroke="#E0D3F5"/>
<path d="M86.872 16.376C87.0587 16.376 87.2053 16.432 87.312 16.544C87.4187 16.6507 87.472 16.7893 87.472 16.96V18H79.68V17.416C79.68 17.2987 79.704 17.176 79.752 17.048C79.8 16.92 79.8773 16.8027 79.984 16.696L83.568 13.104C83.872 12.8 84.1413 12.5093 84.376 12.232C84.616 11.9547 84.8187 11.6773 84.984 11.4C85.1547 11.1227 85.2827 10.8427 85.368 10.56C85.4587 10.272 85.504 9.97067 85.504 9.656C85.504 9.352 85.456 9.08533 85.36 8.856C85.2693 8.62133 85.1413 8.42933 84.976 8.28C84.816 8.12533 84.6213 8.01067 84.392 7.936C84.168 7.856 83.92 7.816 83.648 7.816C83.3867 7.816 83.144 7.85333 82.92 7.928C82.7013 8.00267 82.504 8.10667 82.328 8.24C82.1573 8.37333 82.0133 8.53333 81.896 8.72C81.784 8.90133 81.7013 9.10133 81.648 9.32C81.568 9.53867 81.464 9.68533 81.336 9.76C81.2133 9.83467 81.032 9.85067 80.792 9.808L79.888 9.648C79.968 9.104 80.1173 8.62667 80.336 8.216C80.56 7.80533 80.84 7.464 81.176 7.192C81.512 6.91467 81.896 6.70667 82.328 6.568C82.7653 6.424 83.2373 6.352 83.744 6.352C84.256 6.352 84.7253 6.42933 85.152 6.584C85.584 6.73333 85.9547 6.94933 86.264 7.232C86.5787 7.50933 86.824 7.848 87 8.248C87.176 8.648 87.264 9.09867 87.264 9.6C87.264 10.0267 87.2 10.4213 87.072 10.784C86.9493 11.1467 86.7813 11.4933 86.568 11.824C86.3547 12.1547 86.104 12.4773 85.816 12.792C85.5333 13.1013 85.2347 13.416 84.92 13.736L82.136 16.584C82.3653 16.52 82.5947 16.4693 82.824 16.432C83.0587 16.3947 83.28 16.376 83.488 16.376H86.872Z" fill="#E0D3F5"/>
<rect x="136.5" y="0.5" width="31" height="23" rx="1.5" stroke="#E0D3F5"/>
<path d="M147.944 9.648C148.024 9.104 148.173 8.62667 148.392 8.216C148.616 7.80533 148.896 7.464 149.232 7.192C149.568 6.91467 149.952 6.70667 150.384 6.568C150.821 6.424 151.293 6.352 151.8 6.352C152.312 6.352 152.776 6.42667 153.192 6.576C153.613 6.72 153.973 6.92267 154.272 7.184C154.576 7.44533 154.808 7.75733 154.968 8.12C155.133 8.48267 155.216 8.88 155.216 9.312C155.216 9.68 155.171 10.0053 155.08 10.288C154.995 10.5653 154.869 10.8107 154.704 11.024C154.544 11.2373 154.347 11.416 154.112 11.56C153.877 11.704 153.613 11.824 153.32 11.92C154.035 12.128 154.571 12.4613 154.928 12.92C155.285 13.3733 155.464 13.944 155.464 14.632C155.464 15.1867 155.36 15.68 155.152 16.112C154.944 16.544 154.661 16.9093 154.304 17.208C153.952 17.5067 153.539 17.736 153.064 17.896C152.595 18.0507 152.096 18.128 151.568 18.128C150.976 18.128 150.464 18.0587 150.032 17.92C149.6 17.776 149.227 17.5733 148.912 17.312C148.603 17.0453 148.344 16.7253 148.136 16.352C147.928 15.9787 147.752 15.56 147.608 15.096L148.352 14.784C148.549 14.6987 148.736 14.6747 148.912 14.712C149.093 14.7493 149.224 14.848 149.304 15.008C149.389 15.1787 149.485 15.3627 149.592 15.56C149.699 15.752 149.835 15.9307 150 16.096C150.171 16.256 150.379 16.392 150.624 16.504C150.875 16.6107 151.181 16.664 151.544 16.664C151.912 16.664 152.232 16.6053 152.504 16.488C152.781 16.3653 153.011 16.2107 153.192 16.024C153.379 15.832 153.517 15.6187 153.608 15.384C153.699 15.1493 153.744 14.9173 153.744 14.688C153.744 14.4 153.709 14.136 153.64 13.896C153.571 13.6507 153.435 13.4427 153.232 13.272C153.035 13.1013 152.752 12.968 152.384 12.872C152.021 12.7707 151.544 12.72 150.952 12.72V11.48C151.437 11.4747 151.845 11.4267 152.176 11.336C152.512 11.24 152.779 11.112 152.976 10.952C153.179 10.7867 153.323 10.5893 153.408 10.36C153.499 10.1307 153.544 9.88 153.544 9.608C153.544 9.31467 153.499 9.056 153.408 8.832C153.317 8.608 153.189 8.42133 153.024 8.272C152.864 8.11733 152.672 8.00267 152.448 7.928C152.224 7.85333 151.976 7.816 151.704 7.816C151.443 7.816 151.2 7.85333 150.976 7.928C150.757 8.00267 150.56 8.10667 150.384 8.24C150.213 8.37333 150.069 8.53333 149.952 8.72C149.835 8.90133 149.749 9.10133 149.696 9.32C149.621 9.53867 149.52 9.68533 149.392 9.76C149.269 9.83467 149.088 9.85067 148.848 9.808L147.944 9.648Z" fill="#E0D3F5"/>
<rect x="204.5" y="0.5" width="31" height="23" rx="1.5" stroke="#E0D3F5"/>
<path d="M220.768 13.744V9.536C220.768 9.2 220.792 8.832 220.84 8.432L216.968 13.744H220.768ZM223.856 13.744V14.736C223.856 14.832 223.824 14.9147 223.76 14.984C223.701 15.0533 223.611 15.088 223.488 15.088H222.264V18H220.768V15.088H215.784C215.661 15.088 215.555 15.0533 215.464 14.984C215.379 14.9093 215.323 14.8187 215.296 14.712L215.12 13.832L220.648 6.472H222.264V13.744H223.856Z" fill="#E0D3F5"/>
</svg>
