<svg width="14" height="14" viewBox="0 0 14 14" fill="none" xmlns="http://www.w3.org/2000/svg">
<g clip-path="url(#clip0_91_708)">
<path d="M12.3615 4.60447L9.07565 4.12692L7.60678 1.14907C7.56667 1.06753 7.50066 1.00153 7.41913 0.961413C7.21465 0.860469 6.96618 0.944589 6.86394 1.14907L5.39507 4.12692L2.1092 4.60447C2.01861 4.61741 1.93579 4.66012 1.87237 4.72482C1.79571 4.80362 1.75346 4.90963 1.75492 5.01956C1.75638 5.12949 1.80141 5.23434 1.88014 5.31108L4.2575 7.62891L3.69584 10.9018C3.68267 10.978 3.69109 11.0563 3.72016 11.1279C3.74923 11.1995 3.79777 11.2615 3.86029 11.3069C3.9228 11.3523 3.99679 11.3793 4.07386 11.3848C4.15093 11.3903 4.228 11.374 4.29633 11.338L7.23536 9.79274L10.1744 11.338C10.2546 11.3807 10.3478 11.3949 10.4371 11.3794C10.6623 11.3406 10.8137 11.127 10.7749 10.9018L10.2132 7.62891L12.5906 5.31108C12.6553 5.24766 12.698 5.16484 12.7109 5.07425C12.7459 4.84777 12.588 4.63811 12.3615 4.60447Z" fill="#FFC416"/>
</g>
<defs>
<clipPath id="clip0_91_708">
<rect width="13.2522" height="13.2522" fill="white" transform="translate(0.608887 0.03479)"/>
</clipPath>
</defs>
</svg>
